# xmcd
#
# Track frame offsets:
#	150
#	17743
#	31448
#	49058
#	59814
#	79606
#	92633
#	105707
#	120310
#	135442
#	150669
#	164373
#	178878
#	195408
#	210842
#	226805
#	227481
#	228144
#	228879
#	229937
#	230699
#	231431
#	232116
#
# Disc length: 3101 seconds
#
# Revision: 1
# Processed by: cddbd v1.5.2PL0 Copyright (c) Steve Scherf et al.
# Submitted via: audiograbber 1.83.01
#
DISCID=1e0c1b17
DTITLE=Various Artist - CDX Volume 599 (July 7, 2014)
DYEAR=2014
DGENRE=Country
TTITLE0=Ben Rue - I Can't Wait [Radio Edit]
TTITLE1=Dean Alexander - Live A Little
TTITLE2=Brett Eldredge - Mean To Me
TTITLE3=Dylan Scott - Mmm, Mmm, Mmm 
TTITLE4=Luke Bryan - Roller Coaster 
TTITLE5=Miranda Lambert (with Carrie Underwood) - Somethin' Bad
TTITLE6=Kristian Bush - Trailer Hitch
TTITLE7=American Young - I Wasn't Gonna Drink Tonight 
TTITLE8=Stickers - Country Proud
TTITLE9=Miss Jeanie - Fool Chain
TTITLE10=Caitlin - Black Cat Summer
TTITLE11=Eileen Carey - Bottle Your Crazy Up
TTITLE12=Coty James - Cowboy Casanova 
TTITLE13=Lucas Hoge - Flip Flops
TTITLE14=Skylar Elise - You'll Never Understand 
TTITLE15=Jody Lynn - Home Town Country [Radio Liner]
TTITLE16=Jody Lynn - Kickin' Country [Radio Liner]
TTITLE17=Jody Lynn - More Of The Country You Love [Radio Liner]
TTITLE18=Jody Lynn - My New Single [Radio Liner]
TTITLE19=Jody Lynn - Super Country Greatest Hits Of All Time [Radio Liner]
TTITLE20=Jody Lynn - The Best In Country Music [Radio Liner]
TTITLE21=Jody Lynn - Today's Best Country [Radio Liner]
TTITLE22=Jody Lynn - Today's Hot Country [Radio Liner]
EXTD=
EXTT0=
EXTT1=
EXTT2=
EXTT3=
EXTT4=
EXTT5=
EXTT6=
EXTT7=
EXTT8=
EXTT9=
EXTT10=
EXTT11=
EXTT12=
EXTT13=
EXTT14=
EXTT15=
EXTT16=
EXTT17=
EXTT18=
EXTT19=
EXTT20=
EXTT21=
EXTT22=
PLAYORDER=
